<?xml version="1.0" standalone="no"?>
<!DOCTYPE svg PUBLIC "-//W3C//DTD SVG 20010904//EN"
 "http://www.w3.org/TR/2001/REC-SVG-20010904/DTD/svg10.dtd">
<svg version="1.0" xmlns="http://www.w3.org/2000/svg"
 width="700.000000pt" height="700.000000pt" viewBox="0 0 700.000000 700.000000"
 preserveAspectRatio="xMidYMid meet">
<metadata>
Created by potrace 1.14, written by Peter Selinger 2001-2017
</metadata>
<g transform="translate(0.000000,700.000000) scale(0.100000,-0.100000)"
fill="#000000" stroke="none">
<path d="M1580 4990 l0 -1370 335 0 335 0 0 1370 0 1370 -335 0 -335 0 0
-1370z"/>
<path d="M4630 5335 c0 -796 -3 -1006 -12 -1009 -7 -3 -398 -11 -868 -20 -470
-9 -937 -19 -1037 -23 l-183 -6 0 -333 0 -334 23 0 c169 0 2451 51 2476 56 94
16 195 97 240 193 l26 56 3 1213 2 1212 -335 0 -335 0 0 -1005z"/>
<path d="M1580 1870 l0 -1370 335 0 335 0 2 1033 3 1032 950 5 950 5 45 23
c65 34 99 69 131 137 l29 60 0 223 0 222 -1390 0 -1390 0 0 -1370z"/>
<path d="M4677 3233 c-4 -3 -7 -620 -7 -1370 l0 -1363 335 0 335 0 0 1370 0
1370 -328 0 c-181 0 -332 -3 -335 -7z"/>
</g>
</svg>
