<svg width="240" height="240" viewBox="0 0 240 240" fill="none" xmlns="http://www.w3.org/2000/svg">
<rect width="240" height="240" fill="#E4DC4B"/>
<line x1="65.7856" y1="129" x2="65.7856" y2="223" stroke="#17345E" stroke-width="23"/>
<line x1="171.75" y1="129" x2="171.75" y2="223" stroke="#17345E" stroke-width="23"/>
<path d="M181.607 34L181.607 22.5L158.607 22.5L158.607 34L181.607 34ZM158.607 103C158.607 109.351 163.756 114.5 170.107 114.5C176.458 114.5 181.607 109.351 181.607 103L158.607 103ZM158.607 34L158.607 103L181.607 103L181.607 34L158.607 34Z" fill="#17345E"/>
<path d="M98.0718 93.0011L86.5743 93.2384L86.8945 116.236L98.392 115.999L98.0718 93.0011ZM170.267 114.516C176.617 114.385 181.693 109.13 181.605 102.78C181.516 96.429 176.297 91.387 169.947 91.5181L170.267 114.516ZM98.392 115.999L170.267 114.516L169.947 91.5181L98.0718 93.0011L98.392 115.999Z" fill="#17345E"/>
<path d="M70.7144 129H149.571V142C149.571 147.523 145.094 152 139.571 152H70.7144V129Z" fill="#17345E"/>
<line x1="65.7856" y1="22" x2="65.7857" y2="116" stroke="#17345E" stroke-width="23"/>
</svg>
