<svg width="15" height="15" viewBox="0 0 15 15" fill="none" xmlns="http://www.w3.org/2000/svg">
<g clip-path="url(#clip0_675_895)">
<path d="M14.977 1.46688C14.9703 1.36894 14.935 1.27513 14.8753 1.19716C14.8157 1.11918 14.7344 1.06048 14.6416 1.02839C14.5489 0.996289 14.4487 0.992211 14.3536 1.01666C14.2586 1.04111 14.1728 1.09301 14.107 1.16588C13.7801 1.53264 13.3544 1.79752 12.881 1.92888C12.2426 1.3312 11.4005 0.999034 10.526 0.999881C10.0613 1.00014 9.60111 1.09194 9.17184 1.27004C8.74257 1.44813 8.35258 1.70903 8.02414 2.03784C7.6957 2.36666 7.43524 2.75694 7.25763 3.18641C7.08002 3.61588 6.98874 4.07613 6.989 4.54088V4.98088C3.998 4.74988 2.4 2.47688 1.967 1.32488C1.93292 1.23359 1.8729 1.15425 1.79433 1.0966C1.71576 1.03896 1.62206 1.00554 1.52475 1.00044C1.42743 0.995342 1.33075 1.01879 1.24658 1.0679C1.16242 1.11701 1.09444 1.18965 1.051 1.27688C0.00400233 3.37288 -0.156998 5.40688 0.604002 7.13888C1.27 8.65588 2.61 9.86388 4.51 10.6649C3.647 11.2759 2.194 11.9999 0.500002 11.9999C0.392642 11.9997 0.28809 12.0342 0.201813 12.0981C0.115537 12.162 0.052118 12.2519 0.020939 12.3547C-0.01024 12.4574 -0.0075234 12.5674 0.0286869 12.6685C0.0648973 12.7696 0.132678 12.8563 0.222002 12.9159C1.847 13.9999 3.55 13.9999 5.132 13.9999H5.18C10.041 13.9999 13.98 10.0539 13.98 5.18788V4.70888C14.343 4.33888 14.626 3.96188 14.8 3.47288C14.993 2.92688 15.032 2.29488 14.977 1.46688Z" fill="#FFD233"/>
</g>
<defs>
<clipPath id="clip0_675_895">
<rect width="15" height="15" fill="white"/>
</clipPath>
</defs>
</svg>
